<svg xmlns="http://www.w3.org/2000/svg" id="Layer_1" data-name="Layer 1" viewBox="0 0 2208 625.41"><defs><style>.cls-1,.cls-10,.cls-9{fill:#fff;}.cls-1{stroke:#4285f4;stroke-miterlimit:10;stroke-width:4px;}.cls-2{fill:#4285f4;}.cls-3{fill:#e94335;}.cls-4{fill:#34a753;}.cls-5{fill:#f39b93;}.cls-6{fill:#f4a49e;}.cls-7{fill:#4285f3;}.cls-8{fill:#fabb05;}.cls-10{opacity:0;}</style></defs><rect class="cls-1" x="2" y="2" width="2204" height="621.41" rx="66.98"></rect><path class="cls-2" d="M598.69,2H2139a67,67,0,0,1,67,67V556.43a67,67,0,0,1-67,67H598.69a0,0,0,0,1,0,0V2A0,0,0,0,1,598.69,2Z"></path><path class="cls-3" d="M310.33,94.72c3,.08,6,.44,9,.62,5,.31,9.93.85,14.86,1.57a210.06,210.06,0,0,1,33.42,7.72,204.86,204.86,0,0,1,58,29.37A224.15,224.15,0,0,1,446,150.74c.65.6.56.88,0,1.44q-30.35,30.3-60.64,60.64c-.64.65-1,.7-1.65.05a115.76,115.76,0,0,0-40-24.7,119.09,119.09,0,0,0-26.85-6.32,131.4,131.4,0,0,0-22.08-.82,123.78,123.78,0,0,0-62.24,20.19c-25.92,16.95-43.76,40.25-53.88,69.5,0,.1-.08.19-.12.29a2.61,2.61,0,0,1-.28-.17l-23.92-18.56-25.16-19.57c-5.37-4.17-10.73-8.36-16.13-12.5-2.27-1.74-4.45-3.62-6.85-5.2.11-.26.19-.53.32-.78a217.68,217.68,0,0,1,60.41-73.5,214.75,214.75,0,0,1,86.94-41.09,199.42,199.42,0,0,1,26.41-4.09c3.84-.34,7.67-.56,11.51-.83a48.67,48.67,0,0,0,6.61-.2h4.48A58,58,0,0,0,310.33,94.72Z"></path><path class="cls-4" d="M178.49,354.41c1.69,4.62,3.39,9.24,5.5,13.7,13.82,29.17,35.09,51,64.34,64.8a121.9,121.9,0,0,0,35.57,10.45,129.58,129.58,0,0,0,23.21,1c22.26-.89,43.24-6.3,62.54-17.67,1.8-1.06,3.57-2.18,5.35-3.27.1.1.19.21.3.3l20.25,15.73,24.53,19.07,25,19.37a138.19,138.19,0,0,1-10.79,9.31A193.49,193.49,0,0,1,381.47,517a213.22,213.22,0,0,1-39.58,10.56q-6.76,1.14-13.58,1.9c-4.4.49-8.8.83-13.21,1.1-1.52.09-3,.12-4.55.19a45.72,45.72,0,0,0-6.41.19H298.6a45.55,45.55,0,0,0-6.61-.2c-1.44-.09-2.89-.08-4.34-.17q-4.32-.28-8.63-.72-10.49-1.06-20.82-3.12a213.26,213.26,0,0,1-35.47-10.29A219,219,0,0,1,115.49,427.2a184.23,184.23,0,0,1-9.29-16.72l45.22-35.09Z"></path><path class="cls-5" d="M310.33,94.72a58,58,0,0,1-7.46-.2h7.45Z"></path><path class="cls-6" d="M291.78,94.72a.2.2,0,0,0,0-.2h6.6A48.67,48.67,0,0,1,291.78,94.72Z"></path><path class="cls-7" d="M445.05,477.92l-25-19.37-24.53-19.07L375.3,423.75c-.11-.09-.2-.2-.3-.3,2.9-2.17,5.87-4.23,8.64-6.56,18.08-15.18,29.71-34.26,34.66-57.37.26-1.19.24-1.19-1.06-1.19H302.4c-1.7,0-1.48.24-1.48-1.44q0-39.63,0-79.26c0-1.08.27-1.33,1.35-1.33q101.4,0,202.81,0c1.15,0,1.38.42,1.53,1.41q1.4,9,2.25,18.05c.29,3.21.5,6.43.67,9.66.34,6.35.4,12.7.22,19.06a266.1,266.1,0,0,1-3.11,34.28,219.12,219.12,0,0,1-21.47,66.39,190.39,190.39,0,0,1-33.5,46.45C449.5,473.76,447.36,475.93,445.05,477.92Z"></path><path class="cls-8" d="M106.2,410.48a189.13,189.13,0,0,1-8.51-18.88,215.41,215.41,0,0,1-12.53-46.38c-.77-5-1.27-10.06-1.77-15.11a189.91,189.91,0,0,1-.57-23.85,213.77,213.77,0,0,1,16-75.35q3.1-7.57,6.77-14.9c.17-.34.39-.67.58-1,2.4,1.58,4.58,3.46,6.85,5.2,5.4,4.14,10.76,8.33,16.13,12.5l25.16,19.57,23.92,18.56a2.61,2.61,0,0,0,.28.17,146.68,146.68,0,0,0-4.64,17.88,129.3,129.3,0,0,0-2.06,16.87,127.09,127.09,0,0,0,5.94,46.31c.25.78.48,1.56.72,2.34l-27.07,21Z"></path><path class="cls-9" d="M779.08,250.4a46.09,46.09,0,0,1-3.67,14.48,34.43,34.43,0,0,1-8.13,11.47,36.71,36.71,0,0,1-12.72,7.55,50.91,50.91,0,0,1-17.34,2.72,43.1,43.1,0,0,1-17.78-3.56,37.82,37.82,0,0,1-13.56-10.12,45.57,45.57,0,0,1-8.62-15.87,68,68,0,0,1-3-20.89v-8.65a66.49,66.49,0,0,1,3.07-20.86,46.19,46.19,0,0,1,8.8-15.95A39,39,0,0,1,720,180.53a44.38,44.38,0,0,1,18.15-3.59A47.92,47.92,0,0,1,755,179.69a36,36,0,0,1,12.43,7.62,35.14,35.14,0,0,1,8,11.62,49.92,49.92,0,0,1,3.7,14.74H760.6a41.7,41.7,0,0,0-2-9.09,19.54,19.54,0,0,0-4.07-6.86,16.86,16.86,0,0,0-6.67-4.29A28.85,28.85,0,0,0,738.1,192a24.23,24.23,0,0,0-11,2.38,21.17,21.17,0,0,0-7.88,6.89,32.37,32.37,0,0,0-4.73,11.11,65,65,0,0,0-1.57,15v8.8a69.6,69.6,0,0,0,1.39,14.51,34.12,34.12,0,0,0,4.33,11.18,20.62,20.62,0,0,0,7.55,7.22,22.37,22.37,0,0,0,11.07,2.57,32.1,32.1,0,0,0,10.15-1.39,17.36,17.36,0,0,0,6.86-4.11,18.72,18.72,0,0,0,4.21-6.67,40.16,40.16,0,0,0,2.16-9.09Z"></path><path class="cls-9" d="M812.88,285.15H795.06V172.54h17.82Z"></path><path class="cls-9" d="M832.3,185.22a9.42,9.42,0,0,1,2.61-6.81q2.6-2.72,7.44-2.72c3.22,0,5.72.91,7.48,2.72a9.36,9.36,0,0,1,2.64,6.81,9.16,9.16,0,0,1-2.64,6.71c-1.76,1.79-4.26,2.68-7.48,2.68s-5.71-.89-7.44-2.68A9.22,9.22,0,0,1,832.3,185.22Zm18.92,99.93H833.4V205.82h17.82Z"></path><path class="cls-9" d="M903.2,272.39a18.15,18.15,0,0,0,6-1,15,15,0,0,0,4.91-2.78,14.13,14.13,0,0,0,3.37-4.29A13.1,13.1,0,0,0,919,258.9h16.79a25.51,25.51,0,0,1-2.82,10.78,29.5,29.5,0,0,1-7,8.84,33.08,33.08,0,0,1-10.15,5.93,35.16,35.16,0,0,1-12.39,2.17,37.54,37.54,0,0,1-15.95-3.16,32,32,0,0,1-11.29-8.57,36.07,36.07,0,0,1-6.71-12.69,53,53,0,0,1-2.19-15.39v-2.57a53,53,0,0,1,2.19-15.39,36.52,36.52,0,0,1,6.71-12.73,31.86,31.86,0,0,1,11.26-8.61,40.94,40.94,0,0,1,29-.95,29.61,29.61,0,0,1,10.12,6.16,28.25,28.25,0,0,1,6.6,9.45,33,33,0,0,1,2.6,12.1H919a18.44,18.44,0,0,0-1.28-6,15.57,15.57,0,0,0-3.15-5,14.88,14.88,0,0,0-4.88-3.37,16,16,0,0,0-6.45-1.25,15.56,15.56,0,0,0-14.52,8.07,24.38,24.38,0,0,0-2.82,8.21,56.87,56.87,0,0,0-.77,9.31v2.57a57.21,57.21,0,0,0,.77,9.42,24.39,24.39,0,0,0,2.82,8.17,16.27,16.27,0,0,0,5.54,5.79A16.52,16.52,0,0,0,903.2,272.39Z"></path><path class="cls-9" d="M975,251.13l-7.91,8.14v25.88H949.24V172.54h17.82v65l5.57-7,21.92-24.71H1016l-29.48,33.07,32.63,46.26h-20.6Z"></path><path class="cls-9" d="M1082.52,214.48a29.69,29.69,0,0,1,9.68-7.45,28.34,28.34,0,0,1,12.39-2.67,33,33,0,0,1,10.56,1.61,19.82,19.82,0,0,1,8.14,5.17,23.87,23.87,0,0,1,5.2,9.24,45.18,45.18,0,0,1,1.83,13.74v51h-17.81V234q0-8.22-3.56-11.62T1098.51,219a17.32,17.32,0,0,0-9.57,2.56,19.1,19.1,0,0,0-6.42,7v56.67h-17.81V172.54h17.81Z"></path><path class="cls-9" d="M1183.26,286.62a40.73,40.73,0,0,1-15.84-2.94,34.77,34.77,0,0,1-12-8.06,35.37,35.37,0,0,1-7.55-12.17,42.86,42.86,0,0,1-2.64-15.18v-2.93a48.87,48.87,0,0,1,2.79-17,38.48,38.48,0,0,1,7.62-12.9,33.75,33.75,0,0,1,11.4-8.22,34.55,34.55,0,0,1,14.11-2.89,36.08,36.08,0,0,1,15,2.89,28.41,28.41,0,0,1,10.56,8.11,34.76,34.76,0,0,1,6.23,12.39,57.15,57.15,0,0,1,2,15.76v7.62h-51.83a28.41,28.41,0,0,0,2,8.51,21.11,21.11,0,0,0,4.28,6.71,19.67,19.67,0,0,0,6.42,4.43,20.72,20.72,0,0,0,8.39,1.61,23.76,23.76,0,0,0,11.48-2.64,26.78,26.78,0,0,0,8.46-7.25l9.61,9.16a32.71,32.71,0,0,1-4.73,5.54,32.06,32.06,0,0,1-6.6,4.76,37.83,37.83,0,0,1-8.54,3.37A41,41,0,0,1,1183.26,286.62Zm-2.13-68a15,15,0,0,0-11.84,5.14q-4.51,5.13-5.75,14.29h33.94v-1.32a32.9,32.9,0,0,0-1.14-6.78,17.35,17.35,0,0,0-2.82-5.79,13.57,13.57,0,0,0-5-4A16.72,16.72,0,0,0,1181.13,218.65Z"></path><path class="cls-9" d="M1270.43,222.1c-1.18-.19-2.36-.34-3.56-.44s-2.43-.15-3.7-.15q-6.45,0-10.48,2.5a15.29,15.29,0,0,0-6,6.89v54.25h-17.81V205.82h17l.44,8.88a22.91,22.91,0,0,1,7.44-7.59,19.35,19.35,0,0,1,10.45-2.75,21.1,21.1,0,0,1,3.48.33,14.7,14.7,0,0,1,2.82.69Z"></path><path class="cls-9" d="M1315.22,286.62a40.71,40.71,0,0,1-15.83-2.94,34.68,34.68,0,0,1-12-8.06,35.25,35.25,0,0,1-7.56-12.17,42.86,42.86,0,0,1-2.64-15.18v-2.93a48.87,48.87,0,0,1,2.79-17,38.67,38.67,0,0,1,7.63-12.9,33.55,33.55,0,0,1,11.4-8.22,34.52,34.52,0,0,1,14.11-2.89,36.08,36.08,0,0,1,15,2.89,28.38,28.38,0,0,1,10.55,8.11,34.77,34.77,0,0,1,6.24,12.39,57.53,57.53,0,0,1,2,15.76v7.62h-51.83a28.41,28.41,0,0,0,1.94,8.51,21,21,0,0,0,4.29,6.71,19.62,19.62,0,0,0,6.41,4.43,20.77,20.77,0,0,0,8.4,1.61,23.72,23.72,0,0,0,11.47-2.64,26.92,26.92,0,0,0,8.47-7.25l9.6,9.16a32.38,32.38,0,0,1-11.32,10.3,37.92,37.92,0,0,1-8.55,3.37A40.91,40.91,0,0,1,1315.22,286.62Zm-2.12-68a15,15,0,0,0-11.85,5.14q-4.5,5.13-5.75,14.29h33.94v-1.32a32.24,32.24,0,0,0-1.13-6.78,17.18,17.18,0,0,0-2.83-5.79,13.62,13.62,0,0,0-4.94-4A16.72,16.72,0,0,0,1313.1,218.65Z"></path><path class="cls-9" d="M1420.57,186.54v19.28h14V219h-14V263.3a13.67,13.67,0,0,0,.59,4.4,5.65,5.65,0,0,0,1.69,2.6,5.9,5.9,0,0,0,2.6,1.25,15.53,15.53,0,0,0,3.33.33,23,23,0,0,0,3.56-.26c1.15-.17,2-.33,2.68-.47v13.78q-2.13.58-5,1.14a36.7,36.7,0,0,1-6.78.55,27.5,27.5,0,0,1-8.18-1.18,16.14,16.14,0,0,1-6.52-3.81,17.61,17.61,0,0,1-4.29-6.89,30.68,30.68,0,0,1-1.54-10.41V219h-13v-13.2h13V186.54Z"></path><path class="cls-9" d="M1442.64,244.75a48.9,48.9,0,0,1,2.53-16,37.94,37.94,0,0,1,7.26-12.8,33.3,33.3,0,0,1,11.54-8.5,37.13,37.13,0,0,1,15.47-3.08,37.8,37.8,0,0,1,15.62,3.08,33.15,33.15,0,0,1,11.62,8.5,37.52,37.52,0,0,1,7.22,12.8,49.71,49.71,0,0,1,2.49,16v1.54a50.11,50.11,0,0,1-2.49,16.06,37,37,0,0,1-7.22,12.79,32.88,32.88,0,0,1-11.58,8.43,41.14,41.14,0,0,1-31.09,0,32.88,32.88,0,0,1-11.58-8.43,37.42,37.42,0,0,1-7.26-12.79,49.29,49.29,0,0,1-2.53-16.06Zm17.82,1.54a45.11,45.11,0,0,0,1.09,10.12,25.49,25.49,0,0,0,3.45,8.32,16.59,16.59,0,0,0,14.59,7.66,16.45,16.45,0,0,0,14.48-7.66,26.39,26.39,0,0,0,3.45-8.32,44,44,0,0,0,1.13-10.12v-1.54a43,43,0,0,0-1.13-10,25.78,25.78,0,0,0-3.49-8.29,17.91,17.91,0,0,0-6-5.68,16.72,16.72,0,0,0-8.62-2.13,16.33,16.33,0,0,0-8.54,2.13,18.17,18.17,0,0,0-5.9,5.68,25.51,25.51,0,0,0-3.45,8.29,44.17,44.17,0,0,0-1.09,10Z"></path><path class="cls-9" d="M1587.8,285.15H1570V172.54h17.81Z"></path><path class="cls-9" d="M1642.13,286.62a40.73,40.73,0,0,1-15.84-2.94,34.77,34.77,0,0,1-12-8.06,35.37,35.37,0,0,1-7.55-12.17,42.86,42.86,0,0,1-2.64-15.18v-2.93a48.87,48.87,0,0,1,2.79-17,38.48,38.48,0,0,1,7.62-12.9,33.75,33.75,0,0,1,11.4-8.22,34.55,34.55,0,0,1,14.11-2.89,36.08,36.08,0,0,1,15,2.89,28.49,28.49,0,0,1,10.56,8.11,34.76,34.76,0,0,1,6.23,12.39,57.15,57.15,0,0,1,2,15.76v7.62h-51.83a28.72,28.72,0,0,0,1.94,8.51,21,21,0,0,0,4.29,6.71,19.67,19.67,0,0,0,6.42,4.43,20.72,20.72,0,0,0,8.39,1.61,23.76,23.76,0,0,0,11.48-2.64,26.78,26.78,0,0,0,8.46-7.25l9.61,9.16a32.71,32.71,0,0,1-4.73,5.54,32.06,32.06,0,0,1-6.6,4.76,37.83,37.83,0,0,1-8.54,3.37A41,41,0,0,1,1642.13,286.62Zm-2.13-68a15,15,0,0,0-11.84,5.14q-4.52,5.13-5.75,14.29h33.94v-1.32a32.9,32.9,0,0,0-1.14-6.78,17.35,17.35,0,0,0-2.82-5.79,13.57,13.57,0,0,0-5-4A16.72,16.72,0,0,0,1640,218.65Z"></path><path class="cls-9" d="M1735.16,285.15a14.89,14.89,0,0,1-1.21-3.3c-.32-1.27-.6-2.64-.84-4.1a31.22,31.22,0,0,1-3.92,3.44,26.4,26.4,0,0,1-4.77,2.82,28.54,28.54,0,0,1-5.64,1.91,29.35,29.35,0,0,1-6.49.7,32,32,0,0,1-10.93-1.8,25.66,25.66,0,0,1-8.54-5,23,23,0,0,1-5.57-7.51,22,22,0,0,1-2-9.38,25.24,25.24,0,0,1,2.42-11.29,21.89,21.89,0,0,1,7-8.22,33.81,33.81,0,0,1,11.33-5,61.59,61.59,0,0,1,15.29-1.72h11.21v-5.21q0-6.15-3.44-9.86t-10.49-3.7a18.33,18.33,0,0,0-5.72.84,14,14,0,0,0-4.36,2.28,10,10,0,0,0-2.78,3.41,9.35,9.35,0,0,0-1,4.25h-17.82a19.13,19.13,0,0,1,2.31-9.06,25.12,25.12,0,0,1,6.56-7.77,33.69,33.69,0,0,1,10.3-5.46,45.34,45.34,0,0,1,25.85-.33,27.85,27.85,0,0,1,9.75,5.13,23.16,23.16,0,0,1,6.37,8.51,29,29,0,0,1,2.28,11.91v35.19q0,10.71,3,17.08v1.25Zm-19.57-12.83a19.73,19.73,0,0,0,5.75-.81,20.26,20.26,0,0,0,4.84-2.12,18.39,18.39,0,0,0,3.78-3,16.8,16.8,0,0,0,2.56-3.49v-15h-9.6q-9.9,0-14.88,3.44a11.16,11.16,0,0,0-5,9.75,12.1,12.1,0,0,0,.81,4.48,9.49,9.49,0,0,0,2.42,3.55,11.35,11.35,0,0,0,3.92,2.35A15.73,15.73,0,0,0,1715.59,272.32Z"></path><path class="cls-9" d="M1795.86,262.57l16.79-56.75h18.41l-27.5,79.33h-15.47l-27.71-79.33h18.48Z"></path><path class="cls-9" d="M1876.14,286.62a40.71,40.71,0,0,1-15.83-2.94,34.77,34.77,0,0,1-12-8.06,35.22,35.22,0,0,1-7.55-12.17,42.86,42.86,0,0,1-2.64-15.18v-2.93a48.88,48.88,0,0,1,2.78-17,38.67,38.67,0,0,1,7.63-12.9,33.55,33.55,0,0,1,11.4-8.22,34.55,34.55,0,0,1,14.11-2.89,36.08,36.08,0,0,1,15,2.89,28.49,28.49,0,0,1,10.56,8.11,34.92,34.92,0,0,1,6.23,12.39,57.15,57.15,0,0,1,2,15.76v7.62h-51.83a28.41,28.41,0,0,0,1.94,8.51,21,21,0,0,0,4.29,6.71,19.73,19.73,0,0,0,6.41,4.43,20.77,20.77,0,0,0,8.4,1.61,23.72,23.72,0,0,0,11.47-2.64,26.81,26.81,0,0,0,8.47-7.25l9.6,9.16a32.15,32.15,0,0,1-11.32,10.3,38,38,0,0,1-8.54,3.37A41,41,0,0,1,1876.14,286.62Zm-2.12-68a15,15,0,0,0-11.84,5.14q-4.52,5.13-5.76,14.29h33.95v-1.32a32.9,32.9,0,0,0-1.14-6.78,17.35,17.35,0,0,0-2.82-5.79,13.57,13.57,0,0,0-5-4A16.72,16.72,0,0,0,1874,218.65Z"></path><path class="cls-9" d="M2007.23,277.38a25.46,25.46,0,0,1-9.24,6.82,32.3,32.3,0,0,1-13,2.42,32.68,32.68,0,0,1-10.67-1.65,20.6,20.6,0,0,1-8.24-5.21,24,24,0,0,1-5.36-9.16,42.08,42.08,0,0,1-1.9-13.46V205.82h17.81v51.47a21,21,0,0,0,1,7.15,12.07,12.07,0,0,0,2.75,4.54,9.49,9.49,0,0,0,4,2.42,16.05,16.05,0,0,0,4.77.7q6.89,0,11.14-2.49a15.89,15.89,0,0,0,6.38-6.82v-57h17.82v79.33h-16.79Z"></path><path class="cls-9" d="M2087.07,263.6a9.91,9.91,0,0,0-.63-3.56A7.2,7.2,0,0,0,2084,257a20.13,20.13,0,0,0-5.17-2.68,60.08,60.08,0,0,0-8.69-2.34,77.1,77.1,0,0,1-11.62-3.3,35.91,35.91,0,0,1-9-4.8,20.85,20.85,0,0,1-5.83-6.64,18,18,0,0,1-2.09-8.79,20.74,20.74,0,0,1,2.13-9.21,23.05,23.05,0,0,1,6.12-7.66,30.58,30.58,0,0,1,9.68-5.24,39.23,39.23,0,0,1,12.72-1.94,42.56,42.56,0,0,1,13.3,1.94,30.44,30.44,0,0,1,10,5.35,22.87,22.87,0,0,1,8.43,18h-17.81a11.78,11.78,0,0,0-.88-4.43,11,11,0,0,0-2.64-3.85,12.8,12.8,0,0,0-4.36-2.68,17,17,0,0,0-6-1,18.42,18.42,0,0,0-5.87.84,13.29,13.29,0,0,0-4.14,2.2,8.73,8.73,0,0,0-2.46,3.16,9.18,9.18,0,0,0-.8,3.77,8.09,8.09,0,0,0,.73,3.52,7.17,7.17,0,0,0,2.6,2.79,21.7,21.7,0,0,0,5,2.31,75,75,0,0,0,7.91,2.09,92.59,92.59,0,0,1,12.36,3.44,34.67,34.67,0,0,1,9.23,4.84,19.54,19.54,0,0,1,5.76,6.75,20.11,20.11,0,0,1,2,9.23,20.83,20.83,0,0,1-2.27,9.68,22.43,22.43,0,0,1-6.49,7.59,31.77,31.77,0,0,1-10.16,4.95,46.42,46.42,0,0,1-13.19,1.76,41.53,41.53,0,0,1-14.41-2.31,33,33,0,0,1-10.52-6.05,25.23,25.23,0,0,1-6.41-8.47,22.85,22.85,0,0,1-2.17-9.64h17.3a13.65,13.65,0,0,0,1.69,6.16,12.38,12.38,0,0,0,3.74,4,15.73,15.73,0,0,0,5.13,2.24,24.94,24.94,0,0,0,5.87.69q7,0,10.7-2.67A8.31,8.31,0,0,0,2087.07,263.6Z"></path><path class="cls-9" d="M743.3,465.33a14.89,14.89,0,0,1-1.21-3.3q-.48-1.9-.84-4.11a32.11,32.11,0,0,1-3.92,3.45,27.62,27.62,0,0,1-4.77,2.82,28.54,28.54,0,0,1-5.64,1.91,29.29,29.29,0,0,1-6.49.69A32.25,32.25,0,0,1,709.5,465a25.66,25.66,0,0,1-8.54-5,23.26,23.26,0,0,1-5.57-7.51,22,22,0,0,1-2-9.39,25.29,25.29,0,0,1,2.41-11.29,21.94,21.94,0,0,1,7-8.21,33.81,33.81,0,0,1,11.33-5,61.57,61.57,0,0,1,15.29-1.73h11.21v-5.2q0-6.17-3.44-9.86t-10.49-3.7a18.37,18.37,0,0,0-5.72.84,13.94,13.94,0,0,0-4.36,2.27,10.11,10.11,0,0,0-2.78,3.41,9.38,9.38,0,0,0-1,4.25H695.06a19.12,19.12,0,0,1,2.31-9.05,24.89,24.89,0,0,1,6.56-7.77,33.69,33.69,0,0,1,10.3-5.46,45.11,45.11,0,0,1,25.85-.33,27.85,27.85,0,0,1,9.75,5.13,23.26,23.26,0,0,1,6.38,8.5,29.14,29.14,0,0,1,2.27,11.92V447q0,10.69,3,17.08v1.25ZM723.73,452.5a19.73,19.73,0,0,0,5.75-.81,20.68,20.68,0,0,0,4.84-2.13,18.07,18.07,0,0,0,3.78-3,17,17,0,0,0,2.56-3.48v-15h-9.6q-9.9,0-14.88,3.45a11.16,11.16,0,0,0-5,9.75,12.08,12.08,0,0,0,.81,4.47,9.44,9.44,0,0,0,2.42,3.56,11.34,11.34,0,0,0,3.92,2.34A15.72,15.72,0,0,0,723.73,452.5Z"></path><path class="cls-9" d="M856.06,402.28c-1.17-.2-2.36-.35-3.56-.44s-2.43-.15-3.7-.15q-6.45,0-10.48,2.49a15.29,15.29,0,0,0-6,6.89v54.26H814.49V386h17l.44,8.87a23,23,0,0,1,7.44-7.59,19.46,19.46,0,0,1,10.45-2.75,21.1,21.1,0,0,1,3.48.33,14.55,14.55,0,0,1,2.82.7Z"></path><path class="cls-9" d="M900.85,466.79A40.9,40.9,0,0,1,885,463.86a34.34,34.34,0,0,1-19.5-20.24,42.84,42.84,0,0,1-2.64-15.17v-2.93a48.94,48.94,0,0,1,2.78-17,38.87,38.87,0,0,1,7.63-12.9,33.53,33.53,0,0,1,11.4-8.21,34.56,34.56,0,0,1,14.11-2.9,36.08,36.08,0,0,1,15,2.9,28.37,28.37,0,0,1,10.56,8.1,34.92,34.92,0,0,1,6.23,12.39,57.15,57.15,0,0,1,2,15.76v7.63H880.84a28.34,28.34,0,0,0,1.94,8.5,20.86,20.86,0,0,0,4.29,6.71,19.91,19.91,0,0,0,6.41,4.44,20.94,20.94,0,0,0,8.4,1.61,23.72,23.72,0,0,0,11.47-2.64,26.85,26.85,0,0,0,8.47-7.26l9.6,9.17a32.4,32.4,0,0,1-11.32,10.3,38.5,38.5,0,0,1-8.54,3.37A41.49,41.49,0,0,1,900.85,466.79Zm-2.12-68A15,15,0,0,0,886.89,404q-4.51,5.13-5.76,14.3h34v-1.32a32.68,32.68,0,0,0-1.14-6.78,17.31,17.31,0,0,0-2.82-5.8,13.67,13.67,0,0,0-5-4A16.72,16.72,0,0,0,898.73,398.83Z"></path><path class="cls-9" d="M973.51,442.74,990.3,386h18.4l-27.5,79.33H965.74L938,386H956.5Z"></path><path class="cls-9" d="M1019.84,365.4a9.48,9.48,0,0,1,2.6-6.82q2.61-2.71,7.44-2.71t7.48,2.71a9.38,9.38,0,0,1,2.64,6.82,9.18,9.18,0,0,1-2.64,6.71q-2.64,2.67-7.48,2.67t-7.44-2.67A9.26,9.26,0,0,1,1019.84,365.4Zm18.92,99.93h-17.82V386h17.82Z"></path><path class="cls-9" d="M1093.08,466.79a40.9,40.9,0,0,1-15.83-2.93,34.84,34.84,0,0,1-12-8.07,35.28,35.28,0,0,1-7.55-12.17,42.84,42.84,0,0,1-2.64-15.17v-2.93a48.93,48.93,0,0,1,2.79-17,38.87,38.87,0,0,1,7.63-12.9,33.53,33.53,0,0,1,11.4-8.21,34.52,34.52,0,0,1,14.11-2.9,36.11,36.11,0,0,1,15,2.9,28.25,28.25,0,0,1,10.55,8.1,34.77,34.77,0,0,1,6.24,12.39,57.53,57.53,0,0,1,2.05,15.76v7.63h-51.83a28.34,28.34,0,0,0,1.94,8.5,20.86,20.86,0,0,0,4.29,6.71,19.8,19.8,0,0,0,6.41,4.44,20.94,20.94,0,0,0,8.4,1.61,23.72,23.72,0,0,0,11.47-2.64,27,27,0,0,0,8.47-7.26l9.6,9.17a32.64,32.64,0,0,1-11.32,10.3,38.39,38.39,0,0,1-8.55,3.37A41.36,41.36,0,0,1,1093.08,466.79Zm-2.12-68a15,15,0,0,0-11.85,5.13q-4.5,5.13-5.75,14.3h33.94v-1.32a32,32,0,0,0-1.13-6.78,17.14,17.14,0,0,0-2.83-5.8,13.72,13.72,0,0,0-4.94-4A16.72,16.72,0,0,0,1091,398.83Z"></path><path class="cls-9" d="M1208.4,440.77,1221,386h17.38l-21.63,79.33H1202.1l-17-54.48-16.72,54.48h-14.66L1132,386h17.38l12.83,54.18L1178.49,386h13.42Z"></path><path class="cls-9" d="M1284.36,424.93a48.92,48.92,0,0,1,2.53-16,37.87,37.87,0,0,1,7.25-12.79,33.46,33.46,0,0,1,11.55-8.51,37.25,37.25,0,0,1,15.47-3.08,38,38,0,0,1,15.62,3.08,33.26,33.26,0,0,1,11.62,8.51,37.48,37.48,0,0,1,7.22,12.79,49.73,49.73,0,0,1,2.49,16v1.54a50,50,0,0,1-2.49,16,37.06,37.06,0,0,1-7.22,12.8,33.13,33.13,0,0,1-11.59,8.43,41.24,41.24,0,0,1-31.08,0,33.13,33.13,0,0,1-11.59-8.43,37.44,37.44,0,0,1-7.25-12.8,49.19,49.19,0,0,1-2.53-16Zm17.81,1.54a45.1,45.1,0,0,0,1.1,10.12,25.16,25.16,0,0,0,3.45,8.32,18.07,18.07,0,0,0,23.13,5.61,17,17,0,0,0,5.94-5.61,26.48,26.48,0,0,0,3.44-8.32,43.4,43.4,0,0,0,1.14-10.12v-1.54a42.58,42.58,0,0,0-1.14-10,26,26,0,0,0-3.48-8.28,17.93,17.93,0,0,0-6-5.68,16.71,16.71,0,0,0-8.61-2.13,16.33,16.33,0,0,0-8.54,2.13,18.07,18.07,0,0,0-5.9,5.68,25.11,25.11,0,0,0-3.45,8.28,44.25,44.25,0,0,0-1.1,10Z"></path><path class="cls-9" d="M1389.71,386l.51,9.16a29.13,29.13,0,0,1,10-7.84,30,30,0,0,1,13-2.79,32.26,32.26,0,0,1,10.38,1.58,19.12,19.12,0,0,1,8,5.1,23.65,23.65,0,0,1,5.1,9.16,45.51,45.51,0,0,1,1.79,13.71v51.25h-17.81v-51.4a22.76,22.76,0,0,0-.92-6.93,11.34,11.34,0,0,0-2.67-4.58,10.23,10.23,0,0,0-4.37-2.53,21.14,21.14,0,0,0-6-.77,17.2,17.2,0,0,0-9.57,2.64,19.28,19.28,0,0,0-6.49,7.11v56.46h-17.81V386Z"></path><path class="cls-10" d="M1577.61,451.47a36.15,36.15,0,0,1-4.69,4.87,33.93,33.93,0,0,1-7.74,5,55.45,55.45,0,0,1-11.36,3.89,68.07,68.07,0,0,1-15.58,1.57,48.24,48.24,0,0,1-18.44-3.44,39.86,39.86,0,0,1-14.4-10,45.38,45.38,0,0,1-9.35-16.05,65.54,65.54,0,0,1-3.34-21.77v-7a72.26,72.26,0,0,1,3-21.74,45.5,45.5,0,0,1,8.65-16.17,36.83,36.83,0,0,1,13.78-10,47,47,0,0,1,18.48-3.45,51.89,51.89,0,0,1,17,2.53,35,35,0,0,1,12.24,7.08,32.92,32.92,0,0,1,7.84,10.81,47.37,47.37,0,0,1,3.82,13.75h-18.19a31.17,31.17,0,0,0-2.19-7.7,18.79,18.79,0,0,0-4.22-6.08,19,19,0,0,0-6.6-4A26.88,26.88,0,0,0,1537,372a24.76,24.76,0,0,0-11.32,2.42,21.06,21.06,0,0,0-8,7.07,33.46,33.46,0,0,0-4.77,11.44,68.45,68.45,0,0,0-1.58,15.43v7.19a57.7,57.7,0,0,0,1.91,15.57,33,33,0,0,0,5.46,11.4,23.57,23.57,0,0,0,8.65,7A26.52,26.52,0,0,0,1538.9,452a46.84,46.84,0,0,0,8.18-.62,29.51,29.51,0,0,0,5.75-1.58,16.75,16.75,0,0,0,3.85-2.09,18.51,18.51,0,0,0,2.46-2.16V424.64h-22V410.56h40.47Z"></path><path class="cls-10" d="M1592.93,424.93a49.19,49.19,0,0,1,2.53-16,38.06,38.06,0,0,1,7.26-12.79,33.27,33.27,0,0,1,11.55-8.51,37.22,37.22,0,0,1,15.47-3.08,37.92,37.92,0,0,1,15.61,3.08,33.08,33.08,0,0,1,11.62,8.51,37.31,37.31,0,0,1,7.22,12.79,49.73,49.73,0,0,1,2.5,16v1.54a50,50,0,0,1-2.5,16,36.9,36.9,0,0,1-7.22,12.8,33,33,0,0,1-11.58,8.43,41.26,41.26,0,0,1-31.09,0,33,33,0,0,1-11.58-8.43,37.63,37.63,0,0,1-7.26-12.8,49.46,49.46,0,0,1-2.53-16Zm17.82,1.54a44.53,44.53,0,0,0,1.1,10.12,25.36,25.36,0,0,0,3.44,8.32,16.59,16.59,0,0,0,14.59,7.66,16.45,16.45,0,0,0,14.48-7.66,26.49,26.49,0,0,0,3.45-8.32,43.41,43.41,0,0,0,1.13-10.12v-1.54a42.59,42.59,0,0,0-1.13-10,26,26,0,0,0-3.48-8.28,17.93,17.93,0,0,0-6-5.68,16.71,16.71,0,0,0-8.61-2.13,16.3,16.3,0,0,0-8.54,2.13,18.1,18.1,0,0,0-5.91,5.68,25.32,25.32,0,0,0-3.44,8.28,43.69,43.69,0,0,0-1.1,10Z"></path><path class="cls-10" d="M1678.42,424.93a48.92,48.92,0,0,1,2.53-16,37.87,37.87,0,0,1,7.25-12.79,33.46,33.46,0,0,1,11.55-8.51,37.25,37.25,0,0,1,15.47-3.08,38,38,0,0,1,15.62,3.08,33.26,33.26,0,0,1,11.62,8.51,37.48,37.48,0,0,1,7.22,12.79,49.73,49.73,0,0,1,2.49,16v1.54a50,50,0,0,1-2.49,16,37.06,37.06,0,0,1-7.22,12.8,33.13,33.13,0,0,1-11.59,8.43,41.24,41.24,0,0,1-31.08,0,33.13,33.13,0,0,1-11.59-8.43,37.44,37.44,0,0,1-7.25-12.8,49.19,49.19,0,0,1-2.53-16Zm17.81,1.54a45.1,45.1,0,0,0,1.1,10.12,25.16,25.16,0,0,0,3.45,8.32,18.07,18.07,0,0,0,23.13,5.61,17,17,0,0,0,5.94-5.61,26.48,26.48,0,0,0,3.44-8.32,43.4,43.4,0,0,0,1.14-10.12v-1.54a42.58,42.58,0,0,0-1.14-10,26,26,0,0,0-3.48-8.28,17.93,17.93,0,0,0-6-5.68,16.69,16.69,0,0,0-8.61-2.13,16.33,16.33,0,0,0-8.54,2.13,18.07,18.07,0,0,0-5.9,5.68,25.11,25.11,0,0,0-3.45,8.28,44.25,44.25,0,0,0-1.1,10Z"></path><path class="cls-10" d="M1764.12,425.08a58.19,58.19,0,0,1,2.2-16.5,38.61,38.61,0,0,1,6.34-12.83,30.42,30.42,0,0,1,35.59-8.76,25.65,25.65,0,0,1,9,7l.81-8h16v77.13a36.2,36.2,0,0,1-2.64,14.22,29.08,29.08,0,0,1-7.37,10.48,32,32,0,0,1-11.36,6.49,45.31,45.31,0,0,1-14.55,2.24,44.79,44.79,0,0,1-15.47-3,40.09,40.09,0,0,1-7.85-4.07,25.1,25.1,0,0,1-6.37-6.09l8.43-10.7a26.83,26.83,0,0,0,9.56,7.48,26.37,26.37,0,0,0,10.67,2.27q8.87,0,14-4.8t5.14-14.11v-5.36a25.11,25.11,0,0,1-8.8,6.38,29.12,29.12,0,0,1-11.73,2.2,27.85,27.85,0,0,1-13.09-3,30.18,30.18,0,0,1-10-8.4,38.52,38.52,0,0,1-6.34-12.72,55.62,55.62,0,0,1-2.2-16Zm17.74,1.54a45.06,45.06,0,0,0,1.06,9.93,25.42,25.42,0,0,0,3.34,8.17,16.9,16.9,0,0,0,5.72,5.54,16.18,16.18,0,0,0,8.28,2,17.51,17.51,0,0,0,9.83-2.53,19.32,19.32,0,0,0,6.16-6.71v-34.9a18.15,18.15,0,0,0-6.2-6.6,17.84,17.84,0,0,0-9.64-2.42,16.29,16.29,0,0,0-8.36,2.06,16.64,16.64,0,0,0-5.75,5.57A26.24,26.24,0,0,0,1783,415a44.55,44.55,0,0,0-1.1,10.08Z"></path><path class="cls-10" d="M1871.3,465.33h-17.81V352.72h17.81Z"></path><path class="cls-10" d="M1925.63,466.79a41,41,0,0,1-15.84-2.93,34.89,34.89,0,0,1-12-8.07,35.28,35.28,0,0,1-7.55-12.17,42.84,42.84,0,0,1-2.64-15.17v-2.93a48.93,48.93,0,0,1,2.79-17,39,39,0,0,1,7.62-12.9,33.72,33.72,0,0,1,11.4-8.21,34.6,34.6,0,0,1,14.12-2.9,36.15,36.15,0,0,1,15,2.9,28.25,28.25,0,0,1,10.55,8.1,34.77,34.77,0,0,1,6.24,12.39,57.53,57.53,0,0,1,2,15.76v7.63h-51.83a28.34,28.34,0,0,0,1.94,8.5,20.86,20.86,0,0,0,4.29,6.71,19.7,19.7,0,0,0,6.41,4.44,20.94,20.94,0,0,0,8.4,1.61,23.72,23.72,0,0,0,11.47-2.64,27,27,0,0,0,8.47-7.26l9.6,9.17a32.66,32.66,0,0,1-4.73,5.53,32.1,32.1,0,0,1-6.6,4.77,38.11,38.11,0,0,1-8.54,3.37A41.36,41.36,0,0,1,1925.63,466.79Zm-2.13-68a15,15,0,0,0-11.84,5.13q-4.5,5.13-5.75,14.3h33.94v-1.32a32,32,0,0,0-1.13-6.78,17.52,17.52,0,0,0-2.83-5.8,13.67,13.67,0,0,0-5-4A16.66,16.66,0,0,0,1923.5,398.83Z"></path><path class="cls-9" d="M2047.4,456.89a10.36,10.36,0,0,1,.7-3.81,9.15,9.15,0,0,1,2-3.08,8.82,8.82,0,0,1,3.15-2.05,13,13,0,0,1,8.58,0A8.74,8.74,0,0,1,2065,450a9.15,9.15,0,0,1,2,3.08,10.16,10.16,0,0,1,.7,3.81,9.3,9.3,0,0,1-2.64,6.75q-2.64,2.72-7.48,2.71c-3.22,0-5.72-.9-7.48-2.71A9.3,9.3,0,0,1,2047.4,456.89Zm17.53-23H2049.6l-1.68-75.29h18.77Z"></path><path class="cls-9" d="M1630.94,357l-8.2,8.51c-1.07,1.1-2.13,2.21-3.2,3.3-.72.74-.75.75-1.45.09a44.1,44.1,0,0,0-14.44-8.9,42.88,42.88,0,0,0-12.24-2.8,45.24,45.24,0,0,0-28.68,7,44.74,44.74,0,0,0-17.06,20,47.4,47.4,0,0,0-3.85,23.46,45.53,45.53,0,0,0,38.31,41.63A47.16,47.16,0,0,0,1609,445c10.55-5.27,17-13.79,19.24-25.4.24-1.24.36-2.51.55-3.76.09-.59-.16-.8-.72-.75-.3,0-.61,0-.92,0h-38.26c-1.63,0-1.57.23-1.57-1.53V399.24c0-.31,0-.61,0-.92s.22-.63.65-.62h56.4c1.56,0,1.55,0,1.8,1.48a63.92,63.92,0,0,1,.55,15.57,59.75,59.75,0,0,1-4,17.6,52.73,52.73,0,0,1-18,23.56,58.57,58.57,0,0,1-26.91,10.73,66.61,66.61,0,0,1-12,.69c-15.37-.55-29-5.56-40.71-15.69a63.94,63.94,0,0,1-21.6-38.2,59.72,59.72,0,0,1,4.93-36A64.78,64.78,0,0,1,1544,356.24a63.72,63.72,0,0,1,32.47-15.85,64.77,64.77,0,0,1,51.94,14.12A23.28,23.28,0,0,1,1630.94,357Z"></path><path class="cls-9" d="M1893.36,457.63c-1.12,1.14-2.13,2.23-3.25,3.21a25.26,25.26,0,0,1-13.31,6.05c-12.52,1.78-23.14-2.24-32.18-10.75a38.55,38.55,0,0,1-11.53-20.66c-2.92-14.12.44-26.65,10-37.45a37.48,37.48,0,0,1,19.1-11.68,33.47,33.47,0,0,1,20.77.88,27.52,27.52,0,0,1,9.41,6.12,2.83,2.83,0,0,0,1.22.94c0-1.71,0-3.31,0-4.91,0-2-.27-1.7,1.77-1.71h14.2c1.19,0,1.2,0,1.2,1.23q0,37,0,74a50.31,50.31,0,0,1-3.9,20c-4.65,10.76-12.72,17.52-24.08,20.22a43.4,43.4,0,0,1-23.22-.65,37.42,37.42,0,0,1-18.45-12.89,49.88,49.88,0,0,1-5.22-8.17c-.14-.28-.25-.56-.38-.84a.41.41,0,0,1,.25-.62l.72-.32,13.56-5.66c1-.42,1-.4,1.49.61,2.64,5.42,6.45,9.77,12.17,12,7.65,2.9,15.09,2.24,21.85-2.56,4-2.86,6.21-7,7.32-11.79a30.8,30.8,0,0,0,.74-6.77c0-2.19,0-4.38,0-6.57A1.68,1.68,0,0,0,1893.36,457.63Zm-43.22-31.35a36.84,36.84,0,0,0,.29,4.46,23.58,23.58,0,0,0,7.37,14.44c6.06,5.52,13.16,7.36,21.06,5.05,7.23-2.12,11.91-7.11,14.45-14.11a29.13,29.13,0,0,0,1.42-13.2,25.39,25.39,0,0,0-5-13.06c-3.63-4.73-8.37-7.79-14.32-8.4-8.67-.88-15.57,2.51-20.66,9.5A25.42,25.42,0,0,0,1850.14,426.28Z"></path><path class="cls-9" d="M1786.21,467.22c-12.26-.07-21.08-2.82-28.72-9a41.72,41.72,0,0,1-7.53-56.36,39.37,39.37,0,0,1,26.73-16.29,42,42,0,0,1,31.43,7.22,36.79,36.79,0,0,1,14.84,21c3,10.74,2.32,21.26-2.69,31.3a38.8,38.8,0,0,1-21.43,19.32A38.23,38.23,0,0,1,1786.21,467.22ZM1806.7,425c0-.66-.06-1.32-.13-2s-.15-1.31-.26-1.95a23.64,23.64,0,0,0-9.42-15.54,21.76,21.76,0,0,0-16-4.16,22.21,22.21,0,0,0-14.08,7.17,24.39,24.39,0,0,0-6.35,14.39,26.75,26.75,0,0,0,3.75,17.37A22.68,22.68,0,0,0,1789,450.42C1800.13,447.58,1807.26,437.14,1806.7,425Z"></path><path class="cls-9" d="M1694.5,467.18a41.69,41.69,0,0,1-19.51-4.31,39.23,39.23,0,0,1-17.51-17.19,41.41,41.41,0,0,1-4.84-19.82A40,40,0,0,1,1663,398.62a39.52,39.52,0,0,1,24.1-13,41.73,41.73,0,0,1,24.84,3.45c12.39,5.84,19.93,15.51,22.39,29a41.89,41.89,0,0,1-2,23.37c-5.16,13-14.7,21.13-28.21,24.61A34.79,34.79,0,0,1,1694.5,467.18Zm22.59-42.2a30.68,30.68,0,0,0-1.27-7.37c-3.51-11.13-13.94-17.56-24.47-16.24a22.5,22.5,0,0,0-15.31,8.49c-6.84,8.5-7.09,21.73-1.33,30.71a22.62,22.62,0,0,0,31.47,6.84C1714.15,442.11,1717.18,434.26,1717.09,425Z"></path><path class="cls-9" d="M2023.93,415.85l-5.8,2.43q-23.79,9.89-47.59,19.78c-1.59.66-1.5.39-.66,1.85a21.85,21.85,0,0,0,7.74,8.23,23.09,23.09,0,0,0,14.17,2.81,22.13,22.13,0,0,0,9-2.78,24.49,24.49,0,0,0,7.83-7.26,2.76,2.76,0,0,1,.9-1.05l14,9.32a28.62,28.62,0,0,1-3.12,3.91,43,43,0,0,1-12.89,10,39.82,39.82,0,0,1-15.64,4.07,40.75,40.75,0,0,1-18.24-2.94c-12.1-5.08-19.95-14-23.21-26.69a44.32,44.32,0,0,1,2.31-29.8c5.28-11.8,14.27-19.41,27-21.94,13.21-2.62,24.58,1.19,33.84,11a39.21,39.21,0,0,1,7.34,11.29c1,2.36,2,4.74,3,7.12A.63.63,0,0,1,2023.93,415.85Zm-57.75,6.69c0,.59,0,1.2.1,1.81,0,.38.25.54.63.36.2-.09.41-.16.61-.24l25-10.47,9.55-4c1-.42,1-.48.44-1.42a14.11,14.11,0,0,0-3.61-4.12,17.51,17.51,0,0,0-15-3.17,22.64,22.64,0,0,0-13.77,9.6A20.94,20.94,0,0,0,1966.18,422.54Z"></path><path class="cls-9" d="M1940.75,404.46v58.73c0,1.85.25,1.61-1.58,1.62h-15.9c-.4,0-.53-.21-.52-.57s0-.62,0-.92v-118c0-1.77-.22-1.55,1.51-1.56h15.11c1.55,0,1.38-.16,1.38,1.43Z"></path></svg>