<svg id="visual" viewBox="0 0 900 600" width="900" height="600" xmlns="http://www.w3.org/2000/svg" xmlns:xlink="http://www.w3.org/1999/xlink" version="1.1"><g transform="translate(500.5242512398764 346.64715486374246)"><path d="M100.9 -168.7C140.2 -131.8 187.9 -119.7 203.2 -91.3C218.4 -62.9 201.3 -18.2 189.2 23.3C177.2 64.8 170.2 103.1 148.5 129.4C126.9 155.7 90.5 170 56.7 168.9C22.9 167.8 -8.4 151.4 -64.6 161.6C-120.9 171.8 -202.1 208.7 -243.4 193.1C-284.6 177.5 -285.8 109.4 -295 42.7C-304.2 -24 -321.3 -89.3 -300 -137.5C-278.8 -185.7 -219.1 -217 -162.7 -246C-106.3 -275.1 -53.2 -302.1 -11.2 -284.7C30.8 -267.3 61.6 -205.6 100.9 -168.7" fill="#142331"></path></g></svg>